<?xml version="1.0" standalone="no"?>
<!DOCTYPE svg PUBLIC "-//W3C//DTD SVG 20010904//EN" "http://www.w3.org/TR/2001/REC-SVG-20010904/DTD/svg10.dtd">
<!-- Created using Krita: https://krita.org -->
<svg xmlns="http://www.w3.org/2000/svg" 
    xmlns:xlink="http://www.w3.org/1999/xlink"
    xmlns:krita="http://krita.org/namespaces/svg/krita"
    xmlns:sodipodi="http://sodipodi.sourceforge.net/DTD/sodipodi-0.dtd"
    width="240pt"
    height="240pt"
    viewBox="0 0 240 240">
<defs/>
<path id="shape1" transform="matrix(2.2521329003509 0 0 2.2521329003509 39.477010541894 98.0385452017878)" fill="#000000" fill-rule="evenodd" stroke="#000000" stroke-width="1" stroke-linecap="square" stroke-linejoin="bevel" d="M9.67022 0C11.9317 2.57788 13.4179 4.91727 14.1287 7.01818C15.9214 14.1949 16.3997 18.2556 15.5636 19.2004C14.7275 20.1451 13.5932 21.0565 12.1606 21.9345C11.9028 22.2929 10.8613 22.4875 9.03602 22.5182C7.21077 22.5489 6.39611 23.7828 6.59204 26.22C2.79809 22.2886 0.6377 17.2709 0.110862 11.1669C-0.415976 5.06296 0.934914 1.88338 4.16353 1.62819C5.62502 0.88403 7.46058 0.341301 9.67022 0Z" sodipodi:nodetypes="cczczczcc"/><path id="shape3" transform="matrix(4.84328403412658 -0.0116426833898203 0.0116426833898202 4.84328403412657 33.9268958053085 53.8677784773729)" fill="none" stroke="#000000" stroke-width="1.44" stroke-linecap="square" stroke-linejoin="bevel" d="M0 27.4432C1.93692 31.002 6.38718 33.0121 7.74128 30.3652C8.95228 25.2857 14.617 21.6083 13.7715 16.0516C10.8792 14.418 10.3866 16.9638 7.88288 18.533C6.28778 19.709 4.71803 19.641 4.31162 19.6616C4.10465 19.6372 4.14778 20.2005 4.441 21.3516C2.74979 19.8294 1.72377 18.1188 1.36293 16.2197C1.02751 14.3206 0.859797 13.3711 1.30446 11.3536C1.74912 9.33607 4.51202 10.1603 8.09938 7.39867C8.21268 2.77729 8.81628 -0.34228 13.5618 0.0300901C18.3073 0.40246 18.6743 1.03849 20.5836 2.46386C23.7175 5.95367 24.8153 8.73767 25.4689 12.4527C26.1225 16.1677 25.1159 20.3915 24.7296 22.0012C24.3629 23.5293 23.5403 31.7559 33.3634 30.184" sodipodi:nodetypes="ccccccczczczcc"/><path id="shape0" transform="matrix(0.901329936808826 0 0 0.901329936808825 79.3200308428181 60.5700827743489)" fill="none" stroke="#000000" stroke-width="4.8" stroke-linecap="square" stroke-linejoin="bevel" d="M0 1.54412C4.96762 -1.56358 8.50423 0.728741 12.195 2.26412L15.4271 0.662429C18.2949 0.0886288 23.0525 1.64253 29.7 5.32412C36.3475 9.00572 44.7878 16.0495 55.0209 26.4555C64.2069 36.0843 68.8197 44.6908 68.8591 52.275C66.302 70.8325 51.6089 79.3922 24.78 77.9541" sodipodi:nodetypes="ccczccc"/><path id="shape4" transform="matrix(2.2521329003509 0 0 2.2521329003509 76.1946846321629 108.049692721959)" fill="none" stroke="#000000" stroke-width="1" stroke-linecap="square" stroke-linejoin="miter" stroke-miterlimit="2" d="M0 8.22125C0.899685 7.82332 1.9848 6.45503 3.72713 4.54731C5.08008 3.06594 6.55629 2.09693 7.89771 1.59534C13.1826 -0.380799 15.6158 -0.0809142 16.98 0.214098" sodipodi:nodetypes="cssc"/><path id="shape41" transform="matrix(2.2521329003509 0 0 2.2521329003509 59.1786245567818 127.30499625966)" fill="none" stroke="#ffffff" stroke-width="1" stroke-linecap="square" stroke-linejoin="miter" stroke-miterlimit="2" d="M0.064993 10.5167C-0.0241645 8.19206 -0.404727 4.91991 2.5457 2.77355C5.27475 0.79661 5.38327 0.569749 6.75199 0" sodipodi:nodetypes="ccc"/>
</svg>
