<?xml version="1.0" standalone="no"?>
<!DOCTYPE svg PUBLIC "-//W3C//DTD SVG 20010904//EN" "http://www.w3.org/TR/2001/REC-SVG-20010904/DTD/svg10.dtd">
<!-- Created using Krita: https://krita.org -->
<svg xmlns="http://www.w3.org/2000/svg" 
    xmlns:xlink="http://www.w3.org/1999/xlink"
    xmlns:krita="http://krita.org/namespaces/svg/krita"
    xmlns:sodipodi="http://sodipodi.sourceforge.net/DTD/sodipodi-0.dtd"
    width="240pt"
    height="240pt"
    viewBox="0 0 240 240">
<defs/>
<path id="shape0" transform="translate(35.7947109997663, 49.6579402558546)" fill="#ffffff" fill-rule="evenodd" stroke="#ffffff" stroke-width="2.4" stroke-linecap="square" stroke-linejoin="bevel" d="M27.4453 49.2221C30.2604 53.7477 29.6586 48.9717 36.3253 63.9821C39.0453 71.5321 39.6053 78.5421 41.2453 85.8221C53.79 74.2427 62.63 72.3227 67.7653 80.0621C72.9005 87.8015 69.7805 99.2015 58.4053 114.262C51.8853 126.502 49.5653 128.422 42.9253 150.982C29.6053 162.774 14.9653 153.658 1.64529 151.702C-1.06682 147.849 1.19412 145.83 4.28529 144.622L23.9653 150.382C32.3511 150.229 37.0711 146.589 38.1253 139.462C39.1795 132.335 46.9795 117.655 61.5253 95.4221C65.6596 82.9266 57.3248 78.5852 49.5853 87.8021C42.7025 94.7621 36.8185 99.0522 24.0853 101.782C20.5241 102.095 19.5216 106.233 17.4553 109.312C9.47048 98.3587 7.49973 97.7205 1.88529 80.9021C-1.18054 66.6235 -1.08756 59.0496 6.56529 51.9221C16.8953 45.1787 23.3553 43.6023 33.8653 39.1721C32.6607 19.3124 36.0124 3.3906 63.3253 0.32206C90.4601 -2.40702 108.255 12.5155 116.881 33.4234C121.531 44.6924 127.093 68.5421 125.005 86.6021C124.245 101.862 122.945 108.122 122.185 123.382C125.357 150.113 142.552 147.857 162.205 145.702C166.516 148.45 165.931 150.952 163.885 153.382C147.045 153.222 116.165 158.822 114.445 123.622C120.649 63.4173 118.678 67.8383 116.425 51.8021C108.145 23.2059 89.5715 -0.870253 54.2053 9.74206C38.9859 15.9481 43.7994 30.2961 40.6453 41.4221C40.6453 41.4221 36.2453 44.0221 27.4453 49.2221Z" sodipodi:nodetypes="ccczccccczcccccccccccccccccc"/><path id="shape1" transform="translate(85.7999996053759, 58.559997996167)" fill="#ffffff" fill-rule="evenodd" stroke="#ffffff" stroke-width="1.2" stroke-linecap="square" stroke-linejoin="bevel" d="M0 3.72C2.9082 4.61286 3.36854 5.84814 4.2 7.38C5.43119 5.56069 6.09034 4.1693 8.46 4.2C14.6519 2.49446 47.4106 32.8164 51.78 43.38C57.21 64.1006 26.8558 67.548 11.4 66L13.26 70.38C30.3314 68.7912 54.9506 71.8708 57.12 49.02C57.215 30.3555 17.5893 0.101235 10.98 0L5.52 1.8C4.96 2.56 3.12 3.2 0 3.72Z" sodipodi:nodetypes="cccccccccc"/><path id="shape2" transform="translate(59.1740319247418, 126.584995662707)" fill="#000000" fill-rule="evenodd" stroke="#000000" stroke-width="1.2" stroke-linecap="square" stroke-linejoin="bevel" d="M17.341 0.0299962C8.09096 4.69 2.85096 8.085 1.62096 10.215C0.390964 12.345 -0.139036 17.65 0.0309643 26.13C-0.0540346 18.04 0.460966 12.78 1.57597 10.35C2.69097 7.92 7.92597 4.47 17.281 0Z" sodipodi:nodetypes="czczcc"/><path id="shape01" transform="translate(76.5503083183566, 108.427815749265)" fill="#000000" fill-rule="evenodd" stroke="#ffffff" stroke-width="1.2" stroke-linecap="square" stroke-linejoin="bevel" d="M39.105 0.238723C24.1068 -0.29414 14.3268 2.28586 9.765 7.97872C5.2032 13.6716 1.9682 17.0116 0.06 17.9987C0.138858 17.7987 1.34485 17.1887 0 17.9687C4.1949 14.6344 7.3749 11.3594 9.54 8.14373C13.4255 2.37277 25.305 -0.94628 39.105 0.238723Z" sodipodi:nodetypes="czccsc"/>
</svg>
