<?xml version="1.0" encoding="UTF-8" standalone="no"?>
<!-- Created with Inkscape (http://www.inkscape.org/) -->

<svg
   width="187.14972mm"
   height="187.14972mm"
   viewBox="0 0 187.14972 187.14972"
   version="1.1"
   id="svg1"
   xml:space="preserve"
   sodipodi:docname="drawing.svg"
   inkscape:version="1.4.2 (f4327f4, 2025-05-13)"
   inkscape:export-batch-path="Website\Icons"
   inkscape:export-batch-name=""
   xmlns:inkscape="http://www.inkscape.org/namespaces/inkscape"
   xmlns:sodipodi="http://sodipodi.sourceforge.net/DTD/sodipodi-0.dtd"
   xmlns="http://www.w3.org/2000/svg"
   xmlns:svg="http://www.w3.org/2000/svg"><sodipodi:namedview
     id="namedview1"
     pagecolor="#ffffff"
     bordercolor="#999999"
     borderopacity="1"
     inkscape:showpageshadow="2"
     inkscape:pageopacity="0"
     inkscape:pagecheckerboard="0"
     inkscape:deskcolor="#d1d1d1"
     inkscape:document-units="mm"
     inkscape:zoom="0.71891835"
     inkscape:cx="541.78614"
     inkscape:cy="497.27483"
     inkscape:window-width="1920"
     inkscape:window-height="1009"
     inkscape:window-x="-8"
     inkscape:window-y="-8"
     inkscape:window-maximized="1"
     inkscape:current-layer="svg1"
     showguides="true" /><defs
     id="defs1"><linearGradient
       id="swatch10-1"
       inkscape:swatch="solid"><stop
         style="stop-color:#000000;stop-opacity:1;"
         offset="0"
         id="stop10-4" /></linearGradient><linearGradient
       id="swatch2-2"
       inkscape:swatch="solid"><stop
         style="stop-color:#ffffff;stop-opacity:1;"
         offset="0"
         id="stop2-3" /></linearGradient></defs><g
     id="g8"
     style="display:inline"
     transform="matrix(0.86113884,0,0,0.86113884,-34.30426,-34.30426)"
     inkscape:label="Contact"><circle
       style="display:inline;fill:#000000;stroke-width:0.264583"
       id="path1"
       cx="148.5"
       cy="148.5"
       r="108.66408"
       inkscape:label="Circle" /><path
       id="path2"
       style="display:inline;fill:#ffffff;fill-opacity:1;stroke-width:0.264583"
       d="m 112.21126,77.65477 c -2.65165,0.01297 -5.17675,1.13553 -6.96288,3.095418 0,0 -16.411636,15.979826 -18.448289,18.214426 l -0.206189,15.851746 c 1.977806,2.28684 16.268258,18.81022 16.268258,18.81022 0.34849,0.40277 0.73282,0.77309 1.14825,1.10639 22.5047,25.60815 44.47225,48.19843 66.78197,72.10981 3.3e-4,3.6e-4 7e-4,6.8e-4 0.001,0.001 l 10.69185,12.36255 13.19351,0.13901 12.92323,-19.03258 c 3.56474,-5.24993 3.95129,-11.67149 -0.12195,-16.53749 l -8.97281,-10.71915 c -6.05329,-7.23142 -12.23578,-11.38625 -18.58829,-4.41621 l -6.52208,7.15615 C 155.5833,162.61931 138.14482,144.06041 125.29903,123.52332 l 6.70347,-7.42849 c 6.6447,-7.36304 5.65532,-16.165196 -1.09729,-23.429395 L 119.2036,80.681458 c -1.80518,-1.942023 -4.34093,-3.039643 -6.99234,-3.026688 z"
       inkscape:label="Phone"
       sodipodi:nodetypes="scccccscccsssscccccs" /></g></svg>
