<?xml version="1.0" encoding="UTF-8" standalone="no"?>
<!-- Created with Inkscape (http://www.inkscape.org/) -->

<svg
   width="187.06059mm"
   height="203.82802mm"
   viewBox="0 0 187.06059 203.82802"
   version="1.1"
   id="svg1"
   xml:space="preserve"
   sodipodi:docname="drawing.svg"
   inkscape:version="1.4.2 (f4327f4, 2025-05-13)"
   inkscape:export-batch-path="Website\Icons"
   inkscape:export-batch-name=""
   xmlns:inkscape="http://www.inkscape.org/namespaces/inkscape"
   xmlns:sodipodi="http://sodipodi.sourceforge.net/DTD/sodipodi-0.dtd"
   xmlns="http://www.w3.org/2000/svg"
   xmlns:svg="http://www.w3.org/2000/svg"><sodipodi:namedview
     id="namedview1"
     pagecolor="#ffffff"
     bordercolor="#999999"
     borderopacity="1"
     inkscape:showpageshadow="2"
     inkscape:pageopacity="0"
     inkscape:pagecheckerboard="0"
     inkscape:deskcolor="#d1d1d1"
     inkscape:document-units="mm"
     inkscape:zoom="0.71891835"
     inkscape:cx="541.78614"
     inkscape:cy="497.27483"
     inkscape:window-width="1920"
     inkscape:window-height="1009"
     inkscape:window-x="-8"
     inkscape:window-y="-8"
     inkscape:window-maximized="1"
     inkscape:current-layer="svg1"
     showguides="true" /><defs
     id="defs1"><linearGradient
       id="swatch10-1"
       inkscape:swatch="solid"><stop
         style="stop-color:#000000;stop-opacity:1;"
         offset="0"
         id="stop10-4" /></linearGradient><linearGradient
       id="swatch2-2"
       inkscape:swatch="solid"><stop
         style="stop-color:#ffffff;stop-opacity:1;"
         offset="0"
         id="stop2-3" /></linearGradient></defs><g
     id="g11"
     style="display:inline;stroke-width:100;stroke-dasharray:none"
     transform="translate(-54.969702,-20.633408)"
     inkscape:label="Offers &amp; Pricing"><path
       id="rect9"
       style="fill:#ffffff;fill-opacity:1;stroke:#000000;stroke-width:20;stroke-dasharray:none"
       d="m 111.88248,82.538578 h 72.56938 c 15.18172,10e-7 28.08473,11.094324 30.36031,26.104532 0,0 22.5384,105.81831 16.04226,105.81831 H 65.479703 c -3.874639,0 16.042429,-105.81831 16.042429,-105.81831 C 83.797733,93.632895 96.70075,82.53858 111.88248,82.538578 Z"
       sodipodi:nodetypes="sssssss"
       inkscape:label="Bag" /><path
       style="baseline-shift:baseline;display:inline;overflow:visible;opacity:1;vector-effect:none;enable-background:accumulate;stop-color:#000000;stop-opacity:1"
       d="m 147.69335,20.650391 c -9.97361,0.344918 -18.87032,5.576661 -25.90039,13.074218 -8.30475,8.856999 -12.44361,21.885621 -16.13281,35.978516 -3.68921,14.092895 -5.98437,33.954685 -5.98437,39.322265 0,5.36758 19.99999,3.80139 19.99999,0 0,-3.80139 2.01418,-21.581545 5.33203,-34.255859 3.31785,-12.674314 8.88399,-24.706621 11.375,-27.363281 4.50771,-4.807459 8.63943,-6.651291 12.00196,-6.767578 3.36253,-0.116287 7.12671,1.110738 12.10156,6.625 2.61818,2.902067 8.10895,14.972254 11.44922,27.625 3.34026,12.652746 5.38867,30.350478 5.38867,34.136718 0,3.78624 20,5.38273 20,0 0,-5.38273 -2.34231,-25.192755 -6.05078,-39.240234 -3.70847,-14.047479 -7.92659,-27.038444 -15.9375,-35.917969 -7.79084,-8.635579 -17.66898,-13.561715 -27.64258,-13.216796 z"
       id="path10"
       sodipodi:nodetypes="ssszzssssszzsss"
       inkscape:label="Handle" /></g></svg>
