<?xml version="1.0" encoding="UTF-8" standalone="no"?>
<!-- Created with Inkscape (http://www.inkscape.org/) -->

<svg
   width="204.33594mm"
   height="171.23752mm"
   viewBox="0 0 204.33594 171.23752"
   version="1.1"
   id="svg1"
   xml:space="preserve"
   sodipodi:docname="drawing.svg"
   inkscape:version="1.4.2 (f4327f4, 2025-05-13)"
   inkscape:export-batch-path="Website\Icons"
   inkscape:export-batch-name=""
   xmlns:inkscape="http://www.inkscape.org/namespaces/inkscape"
   xmlns:sodipodi="http://sodipodi.sourceforge.net/DTD/sodipodi-0.dtd"
   xmlns="http://www.w3.org/2000/svg"
   xmlns:svg="http://www.w3.org/2000/svg"><sodipodi:namedview
     id="namedview1"
     pagecolor="#ffffff"
     bordercolor="#999999"
     borderopacity="1"
     inkscape:showpageshadow="2"
     inkscape:pageopacity="0"
     inkscape:pagecheckerboard="0"
     inkscape:deskcolor="#d1d1d1"
     inkscape:document-units="mm"
     inkscape:zoom="0.71891835"
     inkscape:cx="541.78614"
     inkscape:cy="497.27483"
     inkscape:window-width="1920"
     inkscape:window-height="1009"
     inkscape:window-x="-8"
     inkscape:window-y="-8"
     inkscape:window-maximized="1"
     inkscape:current-layer="svg1"
     showguides="true" /><defs
     id="defs1"><linearGradient
       id="swatch10-1"
       inkscape:swatch="solid"><stop
         style="stop-color:#000000;stop-opacity:1;"
         offset="0"
         id="stop10-4" /></linearGradient><linearGradient
       id="swatch2-2"
       inkscape:swatch="solid"><stop
         style="stop-color:#ffffff;stop-opacity:1;"
         offset="0"
         id="stop2-3" /></linearGradient></defs><g
     id="path11-6"
     transform="matrix(0.71382147,0,0,0.86975389,-5.1150062,-39.440853)"
     style="display:inline;stroke-width:25.313;stroke-dasharray:none"
     inkscape:label="Projects"><path
       style="display:inline;fill:#ffffff;fill-opacity:1;stroke:#000000;stroke-width:25.313;stroke-dasharray:none;stroke-opacity:1"
       d="M 40.773642,219.1887 38.430735,68.305534 c -0.08401,-5.410322 4.262569,-9.849655 9.673459,-9.879884 l 75.511746,-0.421855 c 5.41786,-0.03027 10.27258,4.371771 9.82602,9.77128 l -0.4658,5.632111 c -0.28065,3.393514 2.79678,6.146051 6.20118,6.077412 l 115.63218,0.472876 c 5.77897,0.02363 10.54714,4.490818 10.63028,10.269242 l 1.82497,126.835244 -10.33034,10.57893 -205.516905,1.92974 c -5.798954,0.0545 -10.553845,-4.58342 -10.643883,-10.38193 z"
       id="path15-61"
       transform="translate(-18.607446)"
       sodipodi:nodetypes="sssssscssccss"
       inkscape:label="LOwer" /><path
       style="fill:#ffffff;fill-opacity:1;stroke:#000000;stroke-width:25.313;stroke-dasharray:none;stroke-opacity:1"
       d="M 43.600707,220.66294 71.740979,109.58289 a 5.7098061,5.7098061 142.17424 0 1 5.548174,-4.3076 l 220.860067,0.51125 a 3.3863078,3.3863078 52.263107 0 1 3.27218,4.22807 l -28.6702,111.71496 a 5.5865598,5.5865598 142.32973 0 1 -5.43712,4.19778 L 46.885938,224.90448 a 3.405312,3.405312 52.240862 0 1 -3.285231,-4.24154 z"
       id="path16-84"
       transform="translate(-20.734011,1.5949239)"
       inkscape:label="Uper" /></g></svg>
