<?xml version="1.0" standalone="no"?>
<!DOCTYPE svg PUBLIC "-//W3C//DTD SVG 20010904//EN" "http://www.w3.org/TR/2001/REC-SVG-20010904/DTD/svg10.dtd">
<!-- Created using Krita: https://krita.org -->
<svg xmlns="http://www.w3.org/2000/svg" 
    xmlns:xlink="http://www.w3.org/1999/xlink"
    xmlns:krita="http://krita.org/namespaces/svg/krita"
    xmlns:sodipodi="http://sodipodi.sourceforge.net/DTD/sodipodi-0.dtd"
    width="240pt"
    height="240pt"
    viewBox="0 0 240 240">
<defs/>
<path id="shape0" transform="matrix(5.37348626328146 -0.0129172269935262 0.0129172269935262 5.37348626328146 34.4786511580273 44.6515741782336)" fill="#77b3fe" stroke-opacity="0" stroke="#000000" stroke-width="0" stroke-linecap="square" stroke-linejoin="bevel" d="M16.7463 30.6867C11.3507 30.2373 9.46623 32.487 5.6736 31.3184C12.8224 18.3432 12.272 21.1798 12.6606 16.014C9.76828 14.3804 9.29076 16.9638 6.78702 18.5329C5.19194 19.709 3.62219 19.641 3.21577 19.6615C3.0088 19.6371 3.05193 20.2005 3.34515 21.3515C1.65395 19.8293 0.627922 18.1187 0.267084 16.2197C-0.0683361 14.3206 -0.0878256 12.6986 0.208615 11.3535C0.653277 9.33603 3.41618 10.1603 7.00355 7.39863C7.11684 2.77729 7.72034 -0.342276 12.4659 0.0300894C17.2114 0.402455 17.5784 1.03849 19.4877 2.46385C22.6217 5.95362 23.7195 8.73766 24.3731 12.4526C25.0267 16.1676 23.572 20.9413 23.1857 22.551C22.8649 24.1225 22.9948 32.9648 32.8435 29.8793C29.1064 32.4404 32.0093 32.424 16.7463 30.6867Z" sodipodi:nodetypes="ccccccczczczccc"/><path id="shape1" transform="matrix(2.4986775745235 0 0 2.4986775745235 33.9152941972782 93.7860698718377)" fill="#1a1a1a" fill-rule="evenodd" stroke-opacity="0" stroke="#000000" stroke-width="0" stroke-linecap="square" stroke-linejoin="bevel" d="M9.67022 0C11.9317 2.57788 13.4179 4.91727 14.1287 7.01818C15.9214 14.1949 16.3997 18.2556 15.5636 19.2004C14.7275 20.1451 13.5932 21.0565 12.1606 21.9345C11.9028 22.2929 10.8613 22.4875 9.03602 22.5182C7.21077 22.5489 6.39611 23.7828 6.59204 26.22C2.79809 22.2886 0.6377 17.2709 0.110862 11.1669C-0.415976 5.06296 0.934914 1.88338 4.16353 1.62819C5.62502 0.88403 7.46058 0.341301 9.67022 0Z" sodipodi:nodetypes="cczczczcc"/><path id="shape2" transform="matrix(2.4986775745235 0 0 2.4986775745235 57.4822513988943 52.074732791514)" fill="#fee4b3" fill-rule="evenodd" stroke-opacity="0" stroke="#000000" stroke-width="0" stroke-linecap="square" stroke-linejoin="bevel" d="M13.1307 1.07836C16.4196 -3.16213 37.0965 9.84971 35.7957 21.0284C34.9285 28.4808 29.0785 31.8508 18.2457 31.1384C14.0895 28.878 10.7271 29.96 8.15836 34.3842C4.30526 41.0204 8.08259 27.3306 2.02323 19.4834C-4.03613 11.6361 5.33882 21.4989 6.45573 6.41836C5.46864 -1.57991 13.0147 -0.421341 13.1307 1.07836Z" sodipodi:nodetypes="czczzcc"/><path id="shape3" transform="matrix(5.37348626328147 -0.0129172269935263 0.0129172269935262 5.37348626328146 25.7492417321082 44.7846847738666)" fill="none" stroke="#000000" stroke-width="1.2" stroke-linecap="square" stroke-linejoin="bevel" d="M0 29.513C2.69959 32.6504 5.4046 32.9345 8.11503 30.3652C9.32603 25.2857 14.9907 21.6083 14.1452 16.0516C11.2529 14.418 10.7603 16.9638 8.25663 18.533C6.66153 19.709 5.09178 19.641 4.68537 19.6616C4.4784 19.6372 4.52153 20.2005 4.81475 21.3516C3.12354 19.8294 2.09752 18.1188 1.73668 16.2197C1.40126 14.3206 1.38177 12.6986 1.67821 11.3536C2.12287 9.33607 4.88577 10.1603 8.47313 7.39867C8.58643 2.77729 9.18993 -0.34228 13.9355 0.0300901C18.681 0.40246 19.048 1.03849 20.9573 2.46386C24.0912 5.95367 25.189 8.73767 25.8426 12.4527C26.4963 16.1677 25.4895 20.4287 25.1032 22.0384C24.7365 23.5665 23.914 31.7559 33.7371 30.184" sodipodi:nodetypes="ccccccczczczcc"/><path id="shape4" transform="matrix(2.4986775745235 -4.33680868994202e-18 0 2.4986775745235 51.2373937718014 103.530918976541)" fill="none" stroke="#000000" stroke-width="0.48" stroke-linecap="square" stroke-linejoin="miter" stroke-miterlimit="2" d="M0 19.26C0.609855 17.2093 1.59343 12.8375 5.52299 11.9918C12.4164 7.34834 14.6965 4.46894 16.616 3.2195C23.8995 -1.39307 23.3629 1.08729 27.39 0" sodipodi:nodetypes="cccc"/><path id="shape5" transform="matrix(2.4986775745235 -4.33680868994202e-18 0 2.4986775745235 115.213149470222 78.6440902860349)" sodipodi:type="arc" sodipodi:rx="1.22307522351633" sodipodi:ry="1.19999879363143" sodipodi:cx="1.22307522351633" sodipodi:cy="1.19999879363143" sodipodi:start="6.28318530717959" sodipodi:end="6.28318530717955" sodipodi:open="true" d="M2.44615 1.2C2.44615 0.537258 1.89856 -1.73241e-14 1.22308 0C0.547589 1.73241e-14 -1.07164e-14 0.537258 0 1.2C1.07164e-14 1.86274 0.547589 2.4 1.22308 2.4C1.89856 2.4 2.44615 1.86274 2.44615 1.2Z" fill="#ffffff" fill-rule="evenodd" stroke="#ffffff" stroke-width="1.2" stroke-linecap="square" stroke-linejoin="bevel"/>
</svg>
