<?xml version="1.0" standalone="no"?>
<!DOCTYPE svg PUBLIC "-//W3C//DTD SVG 20010904//EN" "http://www.w3.org/TR/2001/REC-SVG-20010904/DTD/svg10.dtd">
<!-- Created using Krita: https://krita.org -->
<svg xmlns="http://www.w3.org/2000/svg" 
    xmlns:xlink="http://www.w3.org/1999/xlink"
    xmlns:krita="http://krita.org/namespaces/svg/krita"
    xmlns:sodipodi="http://sodipodi.sourceforge.net/DTD/sodipodi-0.dtd"
    width="240pt"
    height="240pt"
    viewBox="0 0 240 240">
<defs/>
<path id="shape0" transform="matrix(4.84328403412657 -0.0116426833898202 0.0116426833898202 4.84328403412657 269.391275831614 -21.2024439917076)" fill="#77b3fe" stroke-opacity="0" stroke="#000000" stroke-width="0" stroke-linecap="square" stroke-linejoin="bevel" d="M16.7463 30.6867C11.3507 30.2373 9.46623 32.487 5.6736 31.3184C12.8224 18.3432 12.272 21.1798 12.6606 16.014C9.76828 14.3804 9.29076 16.9638 6.78702 18.5329C5.19194 19.709 3.62219 19.641 3.21577 19.6615C3.0088 19.6371 3.05193 20.2005 3.34515 21.3515C1.65395 19.8293 0.627922 18.1187 0.267084 16.2197C-0.0683361 14.3206 -0.0878256 12.6986 0.208615 11.3535C0.653277 9.33603 3.41618 10.1603 7.00355 7.39863C7.11684 2.77729 7.72034 -0.342276 12.4659 0.0300894C17.2114 0.402455 17.5784 1.03849 19.4877 2.46385C22.6217 5.95362 23.7195 8.73766 24.3731 12.4526C25.0267 16.1676 23.572 20.9413 23.1857 22.551C22.7805 24.1606 22.6258 33.1315 32.8435 29.8793C29.1064 32.4404 32.0093 32.424 16.7463 30.6867Z" sodipodi:nodetypes="ccccccczczczccc"/><path id="shape1" transform="matrix(2.2521329003509 0 0 2.2521329003509 39.4770105868895 98.0385452017878)" fill="#ffffff" fill-rule="evenodd" stroke="#ffffff" stroke-width="1" stroke-linecap="square" stroke-linejoin="bevel" d="M9.67022 0C11.9317 2.57788 13.4179 4.91727 14.1287 7.01818C15.9214 14.1949 16.3997 18.2556 15.5636 19.2004C14.7275 20.1451 13.5932 21.0565 12.1606 21.9345C11.9028 22.2929 10.8613 22.4875 9.03602 22.5182C7.21077 22.5489 6.39611 23.7828 6.59204 26.22C2.79809 22.2886 0.6377 17.2709 0.110862 11.1669C-0.415976 5.06296 0.934914 1.88338 4.16353 1.62819C5.62502 0.88403 7.46058 0.341301 9.67022 0Z" sodipodi:nodetypes="cczczczcc"/><path id="shape2" transform="matrix(2.2521329003509 0 0 2.2521329003509 247.780617943386 43.407733653512)" fill="#fee4b3" fill-rule="evenodd" stroke-opacity="0" stroke="#000000" stroke-width="0" stroke-linecap="square" stroke-linejoin="bevel" d="M13.1307 1.07836C16.4196 -3.16213 36.6629 13.576 35.7957 21.0284C34.9285 28.4808 29.0785 31.8508 18.2457 31.1384C14.0895 28.878 10.7271 29.96 8.15836 34.3842C4.30526 41.0204 8.08259 27.3306 2.02323 19.4834C-4.03613 11.6361 5.33882 21.4989 6.45573 6.41836C5.46864 -1.57991 13.0147 -0.421341 13.1307 1.07836Z" sodipodi:nodetypes="czczzcc"/><path id="shape3" transform="matrix(4.84328403412658 -0.0116426833898203 0.0116426833898202 4.84328403412657 33.9268958050699 53.8677783780412)" fill="none" stroke="#ffffff" stroke-width="1.2" stroke-linecap="square" stroke-linejoin="bevel" d="M0 27.4432C1.93692 31.002 6.38718 33.0121 7.74128 30.3652C8.95228 25.2857 14.617 21.6083 13.7715 16.0516C10.8792 14.418 10.3866 16.9638 7.88288 18.533C6.28778 19.709 4.71803 19.641 4.31162 19.6616C4.10465 19.6372 4.14778 20.2005 4.441 21.3516C2.74979 19.8294 1.72377 18.1188 1.36293 16.2197C1.02751 14.3206 0.859797 13.3711 1.30446 11.3536C1.74912 9.33607 4.51202 10.1603 8.09938 7.39867C8.21268 2.77729 8.81628 -0.34228 13.5618 0.0300901C18.3073 0.40246 18.6743 1.03849 20.5836 2.46386C23.7175 5.95367 24.8153 8.73767 25.4689 12.4527C26.1225 16.1677 25.1159 20.3915 24.7296 22.0012C24.3629 23.5293 23.5403 31.7559 33.3634 30.184" sodipodi:nodetypes="ccccccczczczcc"/><path id="shape4" transform="matrix(0.901329936808826 0 0 0.901329936808825 79.3200308428181 60.5700831659792)" fill="none" stroke="#ffffff" stroke-width="1.92" stroke-linecap="square" stroke-linejoin="bevel" d="M0 1.54412C4.96762 -1.56358 8.50423 0.728741 12.195 2.26412L15.4271 0.662429C18.2949 0.0886284 23.0525 1.64253 29.7 5.32412C36.3475 9.00572 44.7878 16.0495 55.0209 26.4555C64.2069 36.0843 68.8197 44.6908 68.8591 52.275C66.302 70.8325 51.6089 79.3922 24.78 77.9541" sodipodi:nodetypes="ccczccc"/><path id="shape41" transform="matrix(2.2521329003509 0 0 2.2521329003509 76.1946846321629 108.049692491774)" fill="none" stroke="#f2f2f2" stroke-width="1" stroke-linecap="square" stroke-linejoin="miter" stroke-miterlimit="2" d="M0 8.22125C0.899685 7.82332 1.9848 6.45503 3.72713 4.54731C5.08008 3.06594 6.55629 2.09693 7.89771 1.59534C13.1826 -0.380799 15.6158 -0.0809141 16.98 0.214098" sodipodi:nodetypes="cssc"/><path id="shape42" transform="matrix(2.2521329003509 0 0 2.2521329003509 58.4710847739413 127.30499625966)" fill="none" stroke="#000000" stroke-width="1" stroke-linecap="square" stroke-linejoin="miter" stroke-miterlimit="2" d="M0.0261586 10.4501C-0.0629989 8.12546 -0.0905626 4.91991 2.85986 2.77355C5.58891 0.79661 5.69743 0.569749 7.06615 0" sodipodi:nodetypes="ccc"/>
</svg>
